<?xml version="1.0" encoding="UTF-8" standalone="no"?>
<!-- Created with Inkscape (http://www.inkscape.org/) -->

<svg
   version="1.1"
   id="svg1"
   width="73"
   height="74"
   viewBox="0 0 73 74"
   xmlns="http://www.w3.org/2000/svg"
   xmlns:svg="http://www.w3.org/2000/svg">
  <defs
     id="defs1" />
  <g
     id="g1"
     style="display:inline">
    <path
       id="path34"
       style="opacity:1;fill:#eff1d9;fill-opacity:1;stroke:none;stroke-width:0.1;stroke-dasharray:none;stroke-opacity:1"
       d="m 6.7207031,3.8320312 c -3.9826988,0 -3.9824218,3.6503907 -3.9824219,3.6503907 V 50.732422 c 0,0 -2.769e-4,4.105469 3.9824219,4.105469 H 17.177734 c 0.01506,-0.766057 0.259072,-1.482091 4.230469,-4.105469 H 8.5859375 c 0,0 -1.8652344,2.95e-4 -1.8652344,-1.351563 0,-1.385476 1.8164063,-1.386718 1.8164063,-1.386718 H 27.283203 l 12.613281,-5.988282 c 0,0 1.869555,-0.76852 2.853516,-0.757812 0.909731,0.0099 2.621094,0.757812 2.621094,0.757812 l 13.664062,5.988282 c 0,0 4.859785,-0.08509 4.927735,0 0.08733,0.08246 0,1.986328 0,1.986328 0,0 4.818366,2.076119 4.818359,2.759765 7e-6,-7.701663 0,-45.2578121 0,-45.2578121 0,0 -8.64e-4,-3.6503906 -3.638672,-3.6503907 h -28.02539 c 0,0 -0.830106,1.4343423 -1.53125,1.4433594 -0.721058,0.00927 -1.611329,-1.4433594 -1.611329,-1.4433594 z m 5.7871089,7.9394528 h 18.074219 c 0,0 1.292969,-2.18e-4 1.292969,1.582032 0,1.582244 -1.292969,1.611328 -1.292969,1.611328 H 12.507812 c 0,0 -1.445312,-0.0013 -1.445312,-1.576172 0,-1.574873 1.445313,-1.617188 1.445312,-1.617188 z m 27.753907,0 h 18.339843 c 0,0 1.273438,0.0026 1.273438,1.597657 0,1.595088 -1.273438,1.595703 -1.273438,1.595703 H 40.261719 c 0,0 -1.261719,-8.64e-4 -1.261719,-1.597656 0,-1.596801 1.261719,-1.595704 1.261719,-1.595704 z m -27.753907,8.210938 h 18.074219 c 0,0 1.292969,-2.19e-4 1.292969,1.625 0,1.625219 -1.292969,1.660156 -1.292969,1.660156 H 12.507812 c 0,0 -1.445312,-0.05061 -1.445312,-1.667969 0,-1.617351 1.445313,-1.617187 1.445312,-1.617187 z m 27.753907,0 h 18.339843 c 0,0 1.273438,-0.003 1.273438,1.640625 0,1.643658 -1.273438,1.644531 -1.273438,1.644531 H 40.261719 c 0,0 -1.261719,3.29e-4 -1.261719,-1.642578 0,-1.642908 1.261719,-1.642578 1.261719,-1.642578 z m -27.753907,7.847656 h 18.074219 c 0,0 1.292969,-0.02034 1.292969,2.087891 0,2.108226 -1.292969,2.109375 -1.292969,2.109375 H 12.507812 c 0,0 -1.445312,0.01817 -1.445312,-2.089844 0,-2.108018 1.445313,-2.107422 1.445312,-2.107422 z m 27.753907,0 h 18.339843 c 0,0 1.273438,-2.4e-4 1.273438,2.09961 0,2.099847 -1.273438,2.097656 -1.273438,2.097656 H 40.261719 c 0,0 -1.261719,-6.3e-4 -1.261719,-2.097656 0,-2.097029 1.261719,-2.09961 1.261719,-2.09961 z m -27.753907,8.855469 h 18.074219 c 0,0 1.292969,0.01641 1.292969,1.648437 0,1.63203 -1.292969,1.63086 -1.292969,1.63086 H 12.507812 c 0,0 -1.445312,6.74e-4 -1.445312,-1.634766 0,-1.635421 1.445313,-1.644531 1.445312,-1.644531 z m 27.753907,0 h 18.339843 c 0,0 1.273438,0.002 1.273438,1.640625 0,1.638644 -1.273438,1.638672 -1.273438,1.638672 H 40.261719 c 0,0 -1.261719,0.0013 -1.261719,-1.636719 0,-1.63803 1.261719,-1.642578 1.261719,-1.642578 z M 42.75,44.677734 C 41.667548,44.673332 40.759766,45 40.759766,45 L 22,53.601562 c 0,0 -2.01648,0.853064 -2,3.398438 0.01648,2.545374 2,3.623047 2,3.623047 L 39.644531,69 c 0,0 0.956332,0.523213 3.105469,0.515625 C 44.899137,69.508037 45.826172,69 45.826172,69 l 15.183594,-7.279297 v 3.246094 h 0.0332 A 2.7999959,2.8 0 0 0 58.816406,67.699219 2.7999959,2.8 0 0 0 61.617188,70.5 2.7999959,2.8 0 0 0 64.416016,67.699219 2.7999959,2.8 0 0 0 62.1875,64.958984 h 0.0059 V 61.154297 L 63.5,60.527344 c 0,0 2.0067,-1.001752 2,-3.527344 -0.0067,-2.525592 -2,-3.376953 -2,-3.376953 L 44.736328,45 c 0,0 -0.903876,-0.317864 -1.986328,-0.322266 z" />
  </g>
</svg>
