<svg xmlns="http://www.w3.org/2000/svg" xmlns:xlink="http://www.w3.org/1999/xlink" width="1366" zoomAndPan="magnify" viewBox="0 0 1024.5 576" height="768" preserveAspectRatio="xMidYMid meet" version="1.0"><defs><g/><clipPath id="d25f97c8a9"><path d="M 501 160.167969 L 742 160.167969 L 742 220 L 501 220 Z M 501 160.167969 " clip-rule="nonzero"/></clipPath><clipPath id="e159727ccf"><path d="M 615 160.167969 L 855 160.167969 L 855 220 L 615 220 Z M 615 160.167969 " clip-rule="nonzero"/></clipPath></defs><g clip-path="url(#d25f97c8a9)"><path fill="#234c67" d="M 502.390625 195.921875 C 502.390625 192.527344 502.511719 189.136719 502.390625 185.742188 C 502.269531 181.136719 501.90625 176.53125 501.660156 171.921875 C 501.539062 169.5 502.148438 167.195312 503.238281 165.136719 C 504.085938 163.316406 505.78125 162.347656 507.601562 161.742188 C 508.8125 161.257812 510.269531 161.136719 511.601562 161.136719 C 515.359375 161.015625 518.996094 161.378906 522.753906 161.378906 C 526.144531 161.378906 529.539062 160.53125 533.054688 160.410156 C 536.691406 160.167969 540.328125 160.167969 543.84375 160.410156 C 545.660156 160.53125 547.480469 160.53125 549.417969 160.773438 C 554.023438 161.257812 558.628906 161.257812 563.355469 161.742188 C 567.113281 162.105469 570.75 161.984375 574.507812 161.863281 C 580.203125 161.621094 586.023438 161.257812 591.71875 161.5 C 599.234375 161.742188 606.75 161.863281 614.386719 162.105469 C 619.597656 162.226562 624.808594 162.226562 630.023438 162.226562 C 645.777344 162.226562 661.65625 162.105469 677.414062 162.347656 C 683.476562 162.46875 689.65625 162.589844 695.71875 162.46875 C 701.535156 162.347656 707.351562 161.984375 713.171875 161.984375 C 717.414062 161.984375 721.65625 162.46875 725.777344 162.832031 C 728.5625 163.074219 731.351562 163.558594 734.019531 164.410156 C 737.292969 165.378906 739.109375 167.800781 739.957031 170.832031 C 741.414062 175.558594 741.292969 180.53125 740.925781 185.5 C 740.683594 188.527344 740.804688 191.558594 741.046875 194.589844 C 741.292969 197.136719 741.046875 199.679688 741.046875 202.347656 C 741.046875 206.589844 739.59375 210.46875 739.230469 214.589844 C 739.109375 216.40625 738.019531 217.253906 736.5625 217.863281 C 734.019531 218.832031 731.230469 219.074219 728.5625 218.832031 C 727.472656 218.710938 726.261719 218.710938 725.171875 218.710938 C 721.292969 218.589844 717.414062 218.105469 713.65625 217.742188 C 711.957031 217.621094 710.382812 217.496094 708.6875 217.375 C 705.171875 217.253906 701.777344 217.253906 698.261719 217.011719 C 692.203125 216.648438 686.140625 216.40625 680.082031 216.527344 C 674.140625 216.648438 668.203125 217.011719 662.261719 217.496094 C 660.203125 217.742188 658.019531 217.742188 655.960938 217.742188 C 647.113281 217.863281 638.265625 217.742188 629.535156 217.742188 C 624.082031 217.742188 618.75 217.863281 613.296875 217.742188 C 609.296875 217.621094 605.296875 217.496094 601.296875 217.621094 C 595.71875 217.863281 590.144531 218.347656 584.570312 218.589844 C 582.507812 218.710938 580.328125 218.710938 578.265625 218.832031 C 572.449219 219.195312 566.628906 219.679688 560.8125 219.800781 C 556.449219 219.921875 552.085938 220.042969 547.84375 219.921875 C 543.480469 219.800781 539.238281 219.558594 534.875 219.4375 C 530.144531 219.195312 525.539062 219.074219 520.8125 218.953125 C 516.691406 218.832031 512.570312 218.226562 508.691406 216.648438 C 507.117188 215.679688 506.148438 214.710938 505.296875 213.5 C 503.722656 210.953125 502.390625 208.285156 502.390625 205.257812 C 502.511719 202.105469 502.511719 199.074219 502.390625 195.921875 C 502.511719 195.921875 502.390625 195.921875 502.390625 195.921875 Z M 502.390625 195.921875 " fill-opacity="1" fill-rule="nonzero"/></g><g fill="#26210d" fill-opacity="1"><g transform="translate(500.523878, 154.574799)"><g><path d="M 3.953125 -28.234375 L 21.734375 -28.234375 L 21.734375 -24.03125 L 8.3125 -24.03125 L 8.3125 -16.578125 L 19.515625 -16.578125 L 19.515625 -12.375 L 8.3125 -12.375 L 8.3125 -4.1875 L 21.734375 -4.1875 L 21.734375 0 L 3.953125 0 Z M 3.953125 -28.234375 "/></g></g></g><g fill="#26210d" fill-opacity="1"><g transform="translate(525.288168, 154.574799)"><g><path d="M 14 -21.609375 C 15.90625 -21.609375 17.378906 -21.21875 18.421875 -20.4375 C 19.472656 -19.664062 20.207031 -18.617188 20.625 -17.296875 C 21.039062 -15.984375 21.25 -14.519531 21.25 -12.90625 L 21.25 0 L 17.09375 0 L 17.09375 -12.625 C 17.09375 -13.644531 16.957031 -14.554688 16.6875 -15.359375 C 16.425781 -16.171875 15.972656 -16.804688 15.328125 -17.265625 C 14.679688 -17.722656 13.78125 -17.910156 12.625 -17.828125 C 11.550781 -17.828125 10.597656 -17.597656 9.765625 -17.140625 C 8.929688 -16.679688 8.269531 -16.078125 7.78125 -15.328125 C 7.300781 -14.578125 7.0625 -13.742188 7.0625 -12.828125 L 7.0625 0 L 2.90625 0 L 2.90625 -21.171875 L 7.0625 -21.171875 L 7.0625 -17.828125 C 7.707031 -18.816406 8.644531 -19.691406 9.875 -20.453125 C 11.113281 -21.222656 12.488281 -21.609375 14 -21.609375 Z M 14 -21.609375 "/></g></g></g><g fill="#26210d" fill-opacity="1"><g transform="translate(549.286133, 154.574799)"><g><path d="M 15.125 -15.609375 C 14.375 -16.359375 13.519531 -16.972656 12.5625 -17.453125 C 11.601562 -17.941406 10.722656 -18.1875 9.921875 -18.1875 C 9.359375 -18.1875 8.800781 -18.117188 8.25 -17.984375 C 7.695312 -17.847656 7.234375 -17.597656 6.859375 -17.234375 C 6.484375 -16.878906 6.296875 -16.347656 6.296875 -15.640625 C 6.316406 -14.679688 6.75 -14 7.59375 -13.59375 C 8.445312 -13.1875 9.503906 -12.820312 10.765625 -12.5 C 11.867188 -12.207031 12.941406 -11.835938 13.984375 -11.390625 C 15.035156 -10.953125 15.90625 -10.304688 16.59375 -9.453125 C 17.28125 -8.609375 17.625 -7.421875 17.625 -5.890625 C 17.625 -4.566406 17.253906 -3.4375 16.515625 -2.5 C 15.773438 -1.5625 14.816406 -0.84375 13.640625 -0.34375 C 12.472656 0.15625 11.25 0.40625 9.96875 0.40625 C 8.425781 0.40625 6.910156 0.128906 5.421875 -0.421875 C 3.929688 -0.972656 2.660156 -1.921875 1.609375 -3.265625 L 4.4375 -5.6875 C 5.164062 -4.851562 5.992188 -4.203125 6.921875 -3.734375 C 7.847656 -3.265625 8.984375 -3.03125 10.328125 -3.03125 C 10.835938 -3.03125 11.347656 -3.113281 11.859375 -3.28125 C 12.367188 -3.457031 12.804688 -3.738281 13.171875 -4.125 C 13.535156 -4.519531 13.71875 -5.054688 13.71875 -5.734375 C 13.71875 -6.367188 13.519531 -6.867188 13.125 -7.234375 C 12.738281 -7.597656 12.222656 -7.894531 11.578125 -8.125 C 10.929688 -8.351562 10.21875 -8.5625 9.4375 -8.75 C 8.28125 -9.070312 7.144531 -9.46875 6.03125 -9.9375 C 4.914062 -10.40625 3.988281 -11.078125 3.25 -11.953125 C 2.507812 -12.828125 2.140625 -14.019531 2.140625 -15.53125 C 2.140625 -16.789062 2.492188 -17.867188 3.203125 -18.765625 C 3.921875 -19.671875 4.859375 -20.367188 6.015625 -20.859375 C 7.171875 -21.359375 8.40625 -21.609375 9.71875 -21.609375 C 10.976562 -21.609375 12.347656 -21.335938 13.828125 -20.796875 C 15.304688 -20.265625 16.53125 -19.410156 17.5 -18.234375 Z M 15.125 -15.609375 "/></g></g></g><g fill="#26210d" fill-opacity="1"><g transform="translate(568.605504, 154.574799)"><g><path d="M 5.6875 -25.765625 C 4.738281 -25.765625 4.035156 -26.003906 3.578125 -26.484375 C 3.117188 -26.972656 2.890625 -27.609375 2.890625 -28.390625 C 2.890625 -29.054688 3.117188 -29.660156 3.578125 -30.203125 C 4.035156 -30.742188 4.738281 -31.015625 5.6875 -31.015625 C 6.625 -31.015625 7.320312 -30.769531 7.78125 -30.28125 C 8.238281 -29.800781 8.46875 -29.171875 8.46875 -28.390625 C 8.46875 -27.710938 8.238281 -27.101562 7.78125 -26.5625 C 7.320312 -26.03125 6.625 -25.765625 5.6875 -25.765625 Z M 7.828125 0 L 3.671875 0 L 3.671875 -21.171875 L 7.828125 -21.171875 Z M 7.828125 0 "/></g></g></g><g fill="#26210d" fill-opacity="1"><g transform="translate(579.818, 154.574799)"><g><path d="M 14 -21.609375 C 15.90625 -21.609375 17.378906 -21.21875 18.421875 -20.4375 C 19.472656 -19.664062 20.207031 -18.617188 20.625 -17.296875 C 21.039062 -15.984375 21.25 -14.519531 21.25 -12.90625 L 21.25 0 L 17.09375 0 L 17.09375 -12.625 C 17.09375 -13.644531 16.957031 -14.554688 16.6875 -15.359375 C 16.425781 -16.171875 15.972656 -16.804688 15.328125 -17.265625 C 14.679688 -17.722656 13.78125 -17.910156 12.625 -17.828125 C 11.550781 -17.828125 10.597656 -17.597656 9.765625 -17.140625 C 8.929688 -16.679688 8.269531 -16.078125 7.78125 -15.328125 C 7.300781 -14.578125 7.0625 -13.742188 7.0625 -12.828125 L 7.0625 0 L 2.90625 0 L 2.90625 -21.171875 L 7.0625 -21.171875 L 7.0625 -17.828125 C 7.707031 -18.816406 8.644531 -19.691406 9.875 -20.453125 C 11.113281 -21.222656 12.488281 -21.609375 14 -21.609375 Z M 14 -21.609375 "/></g></g></g><g fill="#26210d" fill-opacity="1"><g transform="translate(603.815966, 154.574799)"><g><path d="M 23.1875 -10.609375 C 23.1875 -8.453125 22.707031 -6.546875 21.75 -4.890625 C 20.800781 -3.242188 19.515625 -1.945312 17.890625 -1 C 16.265625 -0.0625 14.441406 0.40625 12.421875 0.40625 C 10.398438 0.40625 8.566406 -0.0625 6.921875 -1 C 5.285156 -1.945312 3.988281 -3.242188 3.03125 -4.890625 C 2.082031 -6.546875 1.609375 -8.453125 1.609375 -10.609375 C 1.609375 -12.753906 2.082031 -14.65625 3.03125 -16.3125 C 3.988281 -17.96875 5.285156 -19.265625 6.921875 -20.203125 C 8.566406 -21.140625 10.398438 -21.609375 12.421875 -21.609375 C 14.441406 -21.609375 16.265625 -21.140625 17.890625 -20.203125 C 19.515625 -19.265625 20.800781 -17.96875 21.75 -16.3125 C 22.707031 -14.65625 23.1875 -12.753906 23.1875 -10.609375 Z M 18.953125 -10.609375 C 18.984375 -12.035156 18.707031 -13.289062 18.125 -14.375 C 17.550781 -15.46875 16.765625 -16.316406 15.765625 -16.921875 C 14.773438 -17.523438 13.660156 -17.828125 12.421875 -17.828125 C 11.179688 -17.828125 10.054688 -17.523438 9.046875 -16.921875 C 8.046875 -16.316406 7.253906 -15.46875 6.671875 -14.375 C 6.097656 -13.289062 5.820312 -12.035156 5.84375 -10.609375 C 5.820312 -9.210938 6.097656 -7.96875 6.671875 -6.875 C 7.253906 -5.789062 8.046875 -4.9375 9.046875 -4.3125 C 10.054688 -3.695312 11.179688 -3.390625 12.421875 -3.390625 C 13.660156 -3.390625 14.773438 -3.695312 15.765625 -4.3125 C 16.765625 -4.9375 17.550781 -5.789062 18.125 -6.875 C 18.707031 -7.96875 18.984375 -9.210938 18.953125 -10.609375 Z M 18.953125 -10.609375 "/></g></g></g><g fill="#26210d" fill-opacity="1"><g transform="translate(628.620582, 154.574799)"><g/></g></g><g fill="#26210d" fill-opacity="1"><g transform="translate(639.913749, 154.574799)"><g><path d="M 5.359375 -21.171875 L 11.53125 -6.046875 L 17.953125 -21.171875 L 22.21875 -21.171875 L 12.828125 0 L 9.84375 0 L 0.890625 -21.171875 Z M 5.359375 -21.171875 "/></g></g></g><g fill="#26210d" fill-opacity="1"><g transform="translate(663.024385, 154.574799)"><g><path d="M 23.1875 -10.609375 C 23.1875 -8.453125 22.707031 -6.546875 21.75 -4.890625 C 20.800781 -3.242188 19.515625 -1.945312 17.890625 -1 C 16.265625 -0.0625 14.441406 0.40625 12.421875 0.40625 C 10.398438 0.40625 8.566406 -0.0625 6.921875 -1 C 5.285156 -1.945312 3.988281 -3.242188 3.03125 -4.890625 C 2.082031 -6.546875 1.609375 -8.453125 1.609375 -10.609375 C 1.609375 -12.753906 2.082031 -14.65625 3.03125 -16.3125 C 3.988281 -17.96875 5.285156 -19.265625 6.921875 -20.203125 C 8.566406 -21.140625 10.398438 -21.609375 12.421875 -21.609375 C 14.441406 -21.609375 16.265625 -21.140625 17.890625 -20.203125 C 19.515625 -19.265625 20.800781 -17.96875 21.75 -16.3125 C 22.707031 -14.65625 23.1875 -12.753906 23.1875 -10.609375 Z M 18.953125 -10.609375 C 18.984375 -12.035156 18.707031 -13.289062 18.125 -14.375 C 17.550781 -15.46875 16.765625 -16.316406 15.765625 -16.921875 C 14.773438 -17.523438 13.660156 -17.828125 12.421875 -17.828125 C 11.179688 -17.828125 10.054688 -17.523438 9.046875 -16.921875 C 8.046875 -16.316406 7.253906 -15.46875 6.671875 -14.375 C 6.097656 -13.289062 5.820312 -12.035156 5.84375 -10.609375 C 5.820312 -9.210938 6.097656 -7.96875 6.671875 -6.875 C 7.253906 -5.789062 8.046875 -4.9375 9.046875 -4.3125 C 10.054688 -3.695312 11.179688 -3.390625 12.421875 -3.390625 C 13.660156 -3.390625 14.773438 -3.695312 15.765625 -4.3125 C 16.765625 -4.9375 17.550781 -5.789062 18.125 -6.875 C 18.707031 -7.96875 18.984375 -9.210938 18.953125 -10.609375 Z M 18.953125 -10.609375 "/></g></g></g><g fill="#26210d" fill-opacity="1"><g transform="translate(687.828993, 154.574799)"><g><path d="M 2.90625 0 L 2.90625 -29.84375 L 7.0625 -29.84375 L 7.0625 0 Z M 2.90625 0 "/></g></g></g><g fill="#26210d" fill-opacity="1"><g transform="translate(697.912172, 154.574799)"><g><path d="M 9.671875 0 L 5.53125 0 L 5.53125 -17.140625 L 1.125 -17.140625 L 1.125 -21.171875 L 5.53125 -21.171875 L 5.53125 -26.578125 L 9.671875 -26.578125 L 9.671875 -21.171875 L 14.59375 -21.171875 L 14.59375 -17.140625 L 9.671875 -17.140625 Z M 9.671875 0 "/></g></g></g><g fill="#26210d" fill-opacity="1"><g transform="translate(713.399934, 154.574799)"><g><path d="M 22.625 -21.171875 L 22.625 0 L 18.4375 0 L 18.4375 -3.265625 C 17.789062 -2.378906 16.832031 -1.546875 15.5625 -0.765625 C 14.300781 0.015625 12.835938 0.40625 11.171875 0.40625 C 9.398438 0.40625 7.78125 -0.0625 6.3125 -1 C 4.84375 -1.945312 3.675781 -3.253906 2.8125 -4.921875 C 1.957031 -6.585938 1.53125 -8.492188 1.53125 -10.640625 C 1.53125 -12.796875 1.972656 -14.695312 2.859375 -16.34375 C 3.742188 -18 4.96875 -19.289062 6.53125 -20.21875 C 8.09375 -21.144531 9.867188 -21.609375 11.859375 -21.609375 C 13.335938 -21.609375 14.632812 -21.285156 15.75 -20.640625 C 16.863281 -20.003906 17.757812 -19.253906 18.4375 -18.390625 L 18.4375 -21.171875 Z M 12.140625 -3.421875 C 13.429688 -3.421875 14.5625 -3.738281 15.53125 -4.375 C 16.5 -5.007812 17.25 -5.867188 17.78125 -6.953125 C 18.320312 -8.046875 18.59375 -9.273438 18.59375 -10.640625 C 18.59375 -11.984375 18.320312 -13.191406 17.78125 -14.265625 C 17.25 -15.347656 16.5 -16.203125 15.53125 -16.828125 C 14.5625 -17.460938 13.429688 -17.78125 12.140625 -17.78125 C 10.898438 -17.78125 9.796875 -17.46875 8.828125 -16.84375 C 7.859375 -16.226562 7.101562 -15.382812 6.5625 -14.3125 C 6.03125 -13.238281 5.765625 -12.015625 5.765625 -10.640625 C 5.765625 -9.273438 6.03125 -8.046875 6.5625 -6.953125 C 7.101562 -5.867188 7.859375 -5.007812 8.828125 -4.375 C 9.796875 -3.738281 10.898438 -3.421875 12.140625 -3.421875 Z M 12.140625 -3.421875 "/></g></g></g><g fill="#26210d" fill-opacity="1"><g transform="translate(738.930547, 154.574799)"><g><path d="M 22.75 -29.84375 L 22.75 0 L 18.59375 0 L 18.59375 -2.984375 C 17.96875 -2.148438 17.050781 -1.375 15.84375 -0.65625 C 14.632812 0.0507812 13.265625 0.40625 11.734375 0.40625 C 9.828125 0.40625 8.109375 -0.0625 6.578125 -1 C 5.046875 -1.945312 3.832031 -3.253906 2.9375 -4.921875 C 2.050781 -6.585938 1.609375 -8.484375 1.609375 -10.609375 C 1.609375 -12.753906 2.050781 -14.65625 2.9375 -16.3125 C 3.832031 -17.96875 5.03125 -19.265625 6.53125 -20.203125 C 8.039062 -21.140625 9.734375 -21.609375 11.609375 -21.609375 C 13.117188 -21.609375 14.484375 -21.300781 15.703125 -20.6875 C 16.929688 -20.070312 17.894531 -19.347656 18.59375 -18.515625 L 18.59375 -29.84375 Z M 12.296875 -3.1875 C 13.585938 -3.1875 14.71875 -3.507812 15.6875 -4.15625 C 16.65625 -4.800781 17.40625 -5.6875 17.9375 -6.8125 C 18.476562 -7.945312 18.75 -9.210938 18.75 -10.609375 C 18.75 -12.035156 18.476562 -13.304688 17.9375 -14.421875 C 17.40625 -15.535156 16.65625 -16.414062 15.6875 -17.0625 C 14.71875 -17.707031 13.585938 -18.03125 12.296875 -18.03125 C 11.035156 -18.03125 9.921875 -17.707031 8.953125 -17.0625 C 7.984375 -16.414062 7.222656 -15.535156 6.671875 -14.421875 C 6.117188 -13.304688 5.84375 -12.035156 5.84375 -10.609375 C 5.84375 -9.210938 6.117188 -7.945312 6.671875 -6.8125 C 7.222656 -5.6875 7.984375 -4.800781 8.953125 -4.15625 C 9.921875 -3.507812 11.035156 -3.1875 12.296875 -3.1875 Z M 12.296875 -3.1875 "/></g></g></g><g fill="#26210d" fill-opacity="1"><g transform="translate(764.501487, 154.574799)"><g><path d="M 23.1875 -10.609375 C 23.1875 -8.453125 22.707031 -6.546875 21.75 -4.890625 C 20.800781 -3.242188 19.515625 -1.945312 17.890625 -1 C 16.265625 -0.0625 14.441406 0.40625 12.421875 0.40625 C 10.398438 0.40625 8.566406 -0.0625 6.921875 -1 C 5.285156 -1.945312 3.988281 -3.242188 3.03125 -4.890625 C 2.082031 -6.546875 1.609375 -8.453125 1.609375 -10.609375 C 1.609375 -12.753906 2.082031 -14.65625 3.03125 -16.3125 C 3.988281 -17.96875 5.285156 -19.265625 6.921875 -20.203125 C 8.566406 -21.140625 10.398438 -21.609375 12.421875 -21.609375 C 14.441406 -21.609375 16.265625 -21.140625 17.890625 -20.203125 C 19.515625 -19.265625 20.800781 -17.96875 21.75 -16.3125 C 22.707031 -14.65625 23.1875 -12.753906 23.1875 -10.609375 Z M 18.953125 -10.609375 C 18.984375 -12.035156 18.707031 -13.289062 18.125 -14.375 C 17.550781 -15.46875 16.765625 -16.316406 15.765625 -16.921875 C 14.773438 -17.523438 13.660156 -17.828125 12.421875 -17.828125 C 11.179688 -17.828125 10.054688 -17.523438 9.046875 -16.921875 C 8.046875 -16.316406 7.253906 -15.46875 6.671875 -14.375 C 6.097656 -13.289062 5.820312 -12.035156 5.84375 -10.609375 C 5.820312 -9.210938 6.097656 -7.96875 6.671875 -6.875 C 7.253906 -5.789062 8.046875 -4.9375 9.046875 -4.3125 C 10.054688 -3.695312 11.179688 -3.390625 12.421875 -3.390625 C 13.660156 -3.390625 14.773438 -3.695312 15.765625 -4.3125 C 16.765625 -4.9375 17.550781 -5.789062 18.125 -6.875 C 18.707031 -7.96875 18.984375 -9.210938 18.953125 -10.609375 Z M 18.953125 -10.609375 "/></g></g></g><g fill="#26210d" fill-opacity="1"><g transform="translate(789.306112, 154.574799)"><g/></g></g><g fill="#26210d" fill-opacity="1"><g transform="translate(800.599271, 154.574799)"><g><path d="M 22.625 -21.171875 L 22.625 0 L 18.4375 0 L 18.4375 -3.265625 C 17.789062 -2.378906 16.832031 -1.546875 15.5625 -0.765625 C 14.300781 0.015625 12.835938 0.40625 11.171875 0.40625 C 9.398438 0.40625 7.78125 -0.0625 6.3125 -1 C 4.84375 -1.945312 3.675781 -3.253906 2.8125 -4.921875 C 1.957031 -6.585938 1.53125 -8.492188 1.53125 -10.640625 C 1.53125 -12.796875 1.972656 -14.695312 2.859375 -16.34375 C 3.742188 -18 4.96875 -19.289062 6.53125 -20.21875 C 8.09375 -21.144531 9.867188 -21.609375 11.859375 -21.609375 C 13.335938 -21.609375 14.632812 -21.285156 15.75 -20.640625 C 16.863281 -20.003906 17.757812 -19.253906 18.4375 -18.390625 L 18.4375 -21.171875 Z M 12.140625 -3.421875 C 13.429688 -3.421875 14.5625 -3.738281 15.53125 -4.375 C 16.5 -5.007812 17.25 -5.867188 17.78125 -6.953125 C 18.320312 -8.046875 18.59375 -9.273438 18.59375 -10.640625 C 18.59375 -11.984375 18.320312 -13.191406 17.78125 -14.265625 C 17.25 -15.347656 16.5 -16.203125 15.53125 -16.828125 C 14.5625 -17.460938 13.429688 -17.78125 12.140625 -17.78125 C 10.898438 -17.78125 9.796875 -17.46875 8.828125 -16.84375 C 7.859375 -16.226562 7.101562 -15.382812 6.5625 -14.3125 C 6.03125 -13.238281 5.765625 -12.015625 5.765625 -10.640625 C 5.765625 -9.273438 6.03125 -8.046875 6.5625 -6.953125 C 7.101562 -5.867188 7.859375 -5.007812 8.828125 -4.375 C 9.796875 -3.738281 10.898438 -3.421875 12.140625 -3.421875 Z M 12.140625 -3.421875 "/></g></g></g><g fill="#26210d" fill-opacity="1"><g transform="translate(826.129867, 154.574799)"><g><path d="M 4.59375 0.4375 C 3.65625 0.4375 2.957031 0.164062 2.5 -0.375 C 2.039062 -0.925781 1.8125 -1.660156 1.8125 -2.578125 C 1.8125 -3.359375 2.039062 -4.054688 2.5 -4.671875 C 2.957031 -5.296875 3.65625 -5.609375 4.59375 -5.609375 C 5.539062 -5.609375 6.238281 -5.332031 6.6875 -4.78125 C 7.144531 -4.226562 7.375 -3.492188 7.375 -2.578125 C 7.375 -1.828125 7.144531 -1.132812 6.6875 -0.5 C 6.238281 0.125 5.539062 0.4375 4.59375 0.4375 Z M 4.59375 0.4375 "/></g></g></g><g fill="#26210d" fill-opacity="1"><g transform="translate(835.325716, 154.574799)"><g><path d="M 4.59375 0.4375 C 3.65625 0.4375 2.957031 0.164062 2.5 -0.375 C 2.039062 -0.925781 1.8125 -1.660156 1.8125 -2.578125 C 1.8125 -3.359375 2.039062 -4.054688 2.5 -4.671875 C 2.957031 -5.296875 3.65625 -5.609375 4.59375 -5.609375 C 5.539062 -5.609375 6.238281 -5.332031 6.6875 -4.78125 C 7.144531 -4.226562 7.375 -3.492188 7.375 -2.578125 C 7.375 -1.828125 7.144531 -1.132812 6.6875 -0.5 C 6.238281 0.125 5.539062 0.4375 4.59375 0.4375 Z M 4.59375 0.4375 "/></g></g></g><g fill="#26210d" fill-opacity="1"><g transform="translate(844.521564, 154.574799)"><g><path d="M 4.59375 0.4375 C 3.65625 0.4375 2.957031 0.164062 2.5 -0.375 C 2.039062 -0.925781 1.8125 -1.660156 1.8125 -2.578125 C 1.8125 -3.359375 2.039062 -4.054688 2.5 -4.671875 C 2.957031 -5.296875 3.65625 -5.609375 4.59375 -5.609375 C 5.539062 -5.609375 6.238281 -5.332031 6.6875 -4.78125 C 7.144531 -4.226562 7.375 -3.492188 7.375 -2.578125 C 7.375 -1.828125 7.144531 -1.132812 6.6875 -0.5 C 6.238281 0.125 5.539062 0.4375 4.59375 0.4375 Z M 4.59375 0.4375 "/></g></g></g><g clip-path="url(#e159727ccf)"><path fill="#234c67" d="M 615.828125 195.921875 C 615.828125 192.527344 615.949219 189.136719 615.828125 185.742188 C 615.707031 181.136719 615.34375 176.53125 615.101562 171.921875 C 614.980469 169.5 615.585938 167.195312 616.679688 165.136719 C 617.527344 163.316406 619.222656 162.347656 621.042969 161.742188 C 622.253906 161.257812 623.707031 161.136719 625.042969 161.136719 C 628.800781 161.015625 632.433594 161.378906 636.191406 161.378906 C 639.585938 161.378906 642.980469 160.53125 646.496094 160.410156 C 650.132812 160.167969 653.769531 160.167969 657.28125 160.410156 C 659.101562 160.53125 660.917969 160.53125 662.859375 160.773438 C 667.464844 161.257812 672.070312 161.257812 676.796875 161.742188 C 680.554688 162.105469 684.191406 161.984375 687.949219 161.863281 C 693.644531 161.621094 699.464844 161.257812 705.160156 161.5 C 712.675781 161.742188 720.191406 161.863281 727.828125 162.105469 C 733.039062 162.226562 738.25 162.226562 743.460938 162.226562 C 759.21875 162.226562 775.097656 162.105469 790.855469 162.347656 C 796.914062 162.46875 803.097656 162.589844 809.15625 162.46875 C 814.976562 162.347656 820.792969 161.984375 826.613281 161.984375 C 830.855469 161.984375 835.097656 162.46875 839.21875 162.832031 C 842.003906 163.074219 844.792969 163.558594 847.460938 164.410156 C 850.730469 165.378906 852.550781 167.800781 853.398438 170.832031 C 854.851562 175.558594 854.730469 180.53125 854.367188 185.5 C 854.125 188.527344 854.246094 191.558594 854.488281 194.589844 C 854.730469 197.136719 854.488281 199.679688 854.488281 202.347656 C 854.488281 206.589844 853.035156 210.46875 852.671875 214.589844 C 852.550781 216.40625 851.460938 217.253906 850.003906 217.863281 C 847.460938 218.832031 844.671875 219.074219 842.003906 218.832031 C 840.914062 218.710938 839.703125 218.710938 838.609375 218.710938 C 834.730469 218.589844 830.855469 218.105469 827.097656 217.742188 C 825.398438 217.621094 823.824219 217.496094 822.125 217.375 C 818.613281 217.253906 815.21875 217.253906 811.703125 217.011719 C 805.640625 216.648438 799.582031 216.40625 793.519531 216.527344 C 787.582031 216.648438 781.644531 217.011719 775.703125 217.496094 C 773.644531 217.742188 771.460938 217.742188 769.402344 217.742188 C 760.550781 217.863281 751.703125 217.742188 742.976562 217.742188 C 737.523438 217.742188 732.191406 217.863281 726.734375 217.742188 C 722.734375 217.621094 718.734375 217.496094 714.734375 217.621094 C 709.160156 217.863281 703.585938 218.347656 698.007812 218.589844 C 695.949219 218.710938 693.765625 218.710938 691.707031 218.832031 C 685.886719 219.195312 680.070312 219.679688 674.253906 219.800781 C 669.886719 219.921875 665.523438 220.042969 661.28125 219.921875 C 656.917969 219.800781 652.675781 219.558594 648.3125 219.4375 C 643.585938 219.195312 638.980469 219.074219 634.253906 218.953125 C 630.132812 218.832031 626.011719 218.226562 622.132812 216.648438 C 620.558594 215.679688 619.585938 214.710938 618.738281 213.5 C 617.164062 210.953125 615.828125 208.285156 615.828125 205.257812 C 615.949219 202.105469 615.949219 199.074219 615.828125 195.921875 C 615.949219 195.921875 615.828125 195.921875 615.828125 195.921875 Z M 615.828125 195.921875 " fill-opacity="1" fill-rule="nonzero"/></g><g fill="#f7f0dc" fill-opacity="1"><g transform="translate(522.661958, 204.362235)"><g><path d="M 27.859375 -28.234375 L 16.5 0 L 12.265625 0 L 0.96875 -28.234375 L 5.921875 -28.234375 L 12.65625 -11.09375 C 13.007812 -10.175781 13.351562 -9.273438 13.6875 -8.390625 C 14.03125 -7.503906 14.347656 -6.601562 14.640625 -5.6875 C 14.929688 -6.601562 15.238281 -7.507812 15.5625 -8.40625 C 15.882812 -9.3125 16.207031 -10.207031 16.53125 -11.09375 L 22.78125 -28.234375 Z M 27.859375 -28.234375 "/></g></g></g><g fill="#f7f0dc" fill-opacity="1"><g transform="translate(551.497079, 204.362235)"><g><path d="M 3.953125 -28.234375 L 21.734375 -28.234375 L 21.734375 -24.03125 L 8.3125 -24.03125 L 8.3125 -16.578125 L 19.515625 -16.578125 L 19.515625 -12.375 L 8.3125 -12.375 L 8.3125 -4.1875 L 21.734375 -4.1875 L 21.734375 0 L 3.953125 0 Z M 3.953125 -28.234375 "/></g></g></g><g fill="#f7f0dc" fill-opacity="1"><g transform="translate(576.258985, 204.362235)"><g><path d="M 5 -8.515625 C 6.101562 -6.921875 7.253906 -5.6875 8.453125 -4.8125 C 9.648438 -3.945312 11.203125 -3.515625 13.109375 -3.515625 C 14.023438 -3.515625 14.898438 -3.660156 15.734375 -3.953125 C 16.566406 -4.242188 17.25 -4.671875 17.78125 -5.234375 C 18.320312 -5.804688 18.59375 -6.484375 18.59375 -7.265625 C 18.59375 -8.609375 18.019531 -9.65625 16.875 -10.40625 C 15.726562 -11.15625 14.125 -11.734375 12.0625 -12.140625 C 9.425781 -12.671875 7.328125 -13.601562 5.765625 -14.9375 C 4.203125 -16.269531 3.421875 -18.203125 3.421875 -20.734375 C 3.421875 -22.335938 3.867188 -23.734375 4.765625 -24.921875 C 5.671875 -26.109375 6.863281 -27.023438 8.34375 -27.671875 C 9.820312 -28.316406 11.421875 -28.640625 13.140625 -28.640625 C 15.378906 -28.640625 17.300781 -28.207031 18.90625 -27.34375 C 20.519531 -26.476562 21.785156 -25.253906 22.703125 -23.671875 L 19.640625 -20.640625 C 18.910156 -21.859375 17.992188 -22.84375 16.890625 -23.59375 C 15.796875 -24.34375 14.507812 -24.71875 13.03125 -24.71875 C 11.550781 -24.71875 10.304688 -24.375 9.296875 -23.6875 C 8.285156 -23.007812 7.78125 -22.0625 7.78125 -20.84375 C 7.78125 -19.476562 8.3125 -18.476562 9.375 -17.84375 C 10.4375 -17.207031 11.84375 -16.703125 13.59375 -16.328125 C 15.175781 -16.003906 16.679688 -15.503906 18.109375 -14.828125 C 19.535156 -14.160156 20.695312 -13.296875 21.59375 -12.234375 C 22.5 -11.171875 22.953125 -9.890625 22.953125 -8.390625 C 22.953125 -5.703125 22.035156 -3.5625 20.203125 -1.96875 C 18.378906 -0.382812 15.863281 0.40625 12.65625 0.40625 C 10.476562 0.40625 8.492188 -0.0195312 6.703125 -0.875 C 4.921875 -1.738281 3.359375 -3.140625 2.015625 -5.078125 Z M 5 -8.515625 "/></g></g></g><g fill="#f7f0dc" fill-opacity="1"><g transform="translate(601.424181, 204.362235)"><g><path d="M 9.3125 0 L 9.3125 -24.03125 L 1.40625 -24.03125 L 1.40625 -28.234375 L 21.8125 -28.234375 L 21.8125 -24.03125 L 13.671875 -24.03125 L 13.671875 0 Z M 9.3125 0 "/></g></g></g><g fill="#f7f0dc" fill-opacity="1"><g transform="translate(624.653595, 204.362235)"><g><path d="M 16.375 0 L 2.90625 0 L 2.90625 -4.03125 L 7.453125 -4.03125 L 7.453125 -24.203125 L 2.90625 -24.203125 L 2.90625 -28.234375 L 16.375 -28.234375 L 16.375 -24.203125 L 11.8125 -24.203125 L 11.8125 -4.03125 L 16.375 -4.03125 Z M 16.375 0 "/></g></g></g><g fill="#f7f0dc" fill-opacity="1"><g transform="translate(643.930786, 204.362235)"><g><path d="M 15.734375 -28.234375 C 18.472656 -28.234375 20.539062 -27.625 21.9375 -26.40625 C 23.332031 -25.195312 24.03125 -23.4375 24.03125 -21.125 C 24.03125 -19.863281 23.726562 -18.734375 23.125 -17.734375 C 22.519531 -16.742188 21.628906 -15.96875 20.453125 -15.40625 C 21.335938 -15.113281 22.160156 -14.660156 22.921875 -14.046875 C 23.691406 -13.441406 24.316406 -12.671875 24.796875 -11.734375 C 25.285156 -10.796875 25.53125 -9.65625 25.53125 -8.3125 C 25.53125 -6.664062 25.242188 -5.304688 24.671875 -4.234375 C 24.109375 -3.160156 23.367188 -2.3125 22.453125 -1.6875 C 21.546875 -1.070312 20.539062 -0.632812 19.4375 -0.375 C 18.332031 -0.125 17.226562 0 16.125 0 L 3.953125 0 L 3.953125 -28.234375 Z M 15 -24.03125 L 8.3125 -24.03125 L 8.3125 -16.53125 L 15.484375 -16.53125 C 16.585938 -16.5625 17.5625 -16.898438 18.40625 -17.546875 C 19.257812 -18.191406 19.6875 -19.101562 19.6875 -20.28125 C 19.6875 -21.625 19.234375 -22.582031 18.328125 -23.15625 C 17.429688 -23.738281 16.320312 -24.03125 15 -24.03125 Z M 15.6875 -12.34375 L 8.3125 -12.34375 L 8.3125 -4.1875 L 15.890625 -4.1875 C 17.421875 -4.1875 18.671875 -4.53125 19.640625 -5.21875 C 20.609375 -5.90625 21.09375 -6.960938 21.09375 -8.390625 C 21.09375 -9.410156 20.804688 -10.203125 20.234375 -10.765625 C 19.671875 -11.328125 18.976562 -11.726562 18.15625 -11.96875 C 17.34375 -12.21875 16.519531 -12.34375 15.6875 -12.34375 Z M 15.6875 -12.34375 "/></g></g></g><g fill="#f7f0dc" fill-opacity="1"><g transform="translate(671.39473, 204.362235)"><g><path d="M 26.296875 -28.265625 L 26.296875 -10.84375 C 26.296875 -8.71875 25.800781 -6.816406 24.8125 -5.140625 C 23.832031 -3.460938 22.488281 -2.144531 20.78125 -1.1875 C 19.082031 -0.238281 17.128906 0.234375 14.921875 0.234375 C 12.742188 0.234375 10.796875 -0.238281 9.078125 -1.1875 C 7.359375 -2.144531 6.003906 -3.460938 5.015625 -5.140625 C 4.035156 -6.816406 3.546875 -8.71875 3.546875 -10.84375 L 3.546875 -28.265625 L 7.90625 -28.265625 L 7.90625 -11.21875 C 7.90625 -9.8125 8.234375 -8.554688 8.890625 -7.453125 C 9.546875 -6.359375 10.410156 -5.5 11.484375 -4.875 C 12.566406 -4.257812 13.710938 -3.953125 14.921875 -3.953125 C 16.210938 -3.953125 17.40625 -4.257812 18.5 -4.875 C 19.601562 -5.5 20.484375 -6.359375 21.140625 -7.453125 C 21.804688 -8.554688 22.140625 -9.8125 22.140625 -11.21875 L 22.140625 -28.265625 Z M 26.296875 -28.265625 "/></g></g></g><g fill="#f7f0dc" fill-opacity="1"><g transform="translate(701.23807, 204.362235)"><g><path d="M 21.53125 -4.1875 L 21.53125 0 L 3.953125 0 L 3.953125 -28.234375 L 8.3125 -28.234375 L 8.3125 -4.1875 Z M 21.53125 -4.1875 "/></g></g></g><g fill="#f7f0dc" fill-opacity="1"><g transform="translate(725.395055, 204.362235)"><g><path d="M 22.578125 0 L 19.921875 -7.015625 L 8.109375 -7.015625 L 5.4375 0 L 1.015625 0 L 11.9375 -28.234375 L 16.375 -28.234375 L 27.21875 0 Z M 11.859375 -16.859375 L 9.71875 -11.21875 L 18.34375 -11.21875 L 16.125 -17.015625 C 15.78125 -17.960938 15.429688 -18.976562 15.078125 -20.0625 C 14.734375 -21.15625 14.382812 -22.25 14.03125 -23.34375 C 13.65625 -22.21875 13.285156 -21.085938 12.921875 -19.953125 C 12.554688 -18.828125 12.203125 -17.796875 11.859375 -16.859375 Z M 11.859375 -16.859375 "/></g></g></g><g fill="#f7f0dc" fill-opacity="1"><g transform="translate(753.625254, 204.362235)"><g><path d="M 24.875 -19.234375 C 24.875 -17.546875 24.367188 -15.972656 23.359375 -14.515625 C 22.359375 -13.066406 21.050781 -11.992188 19.4375 -11.296875 L 26.015625 0.046875 L 20.734375 0 L 14.765625 -10.609375 L 8.3125 -10.609375 L 8.3125 0 L 3.953125 0 L 3.953125 -28.234375 L 15.96875 -28.234375 C 17.445312 -28.234375 18.863281 -27.867188 20.21875 -27.140625 C 21.582031 -26.410156 22.695312 -25.375 23.5625 -24.03125 C 24.4375 -22.6875 24.875 -21.085938 24.875 -19.234375 Z M 15.25 -24.03125 L 8.3125 -24.03125 L 8.3125 -14.796875 L 16.375 -14.796875 C 17.664062 -14.796875 18.664062 -15.253906 19.375 -16.171875 C 20.09375 -17.085938 20.453125 -18.125 20.453125 -19.28125 C 20.453125 -20.757812 19.9375 -21.921875 18.90625 -22.765625 C 17.882812 -23.609375 16.664062 -24.03125 15.25 -24.03125 Z M 15.25 -24.03125 "/></g></g></g><g fill="#f7f0dc" fill-opacity="1"><g transform="translate(781.653803, 204.362235)"><g><path d="M 3.953125 -28.234375 L 21.734375 -28.234375 L 21.734375 -24.03125 L 8.3125 -24.03125 L 8.3125 -16.578125 L 19.515625 -16.578125 L 19.515625 -12.375 L 8.3125 -12.375 L 8.3125 -4.1875 L 21.734375 -4.1875 L 21.734375 0 L 3.953125 0 Z M 3.953125 -28.234375 "/></g></g></g><g fill="#f7f0dc" fill-opacity="1"><g transform="translate(806.4157, 204.362235)"><g><path d="M 5 -8.515625 C 6.101562 -6.921875 7.253906 -5.6875 8.453125 -4.8125 C 9.648438 -3.945312 11.203125 -3.515625 13.109375 -3.515625 C 14.023438 -3.515625 14.898438 -3.660156 15.734375 -3.953125 C 16.566406 -4.242188 17.25 -4.671875 17.78125 -5.234375 C 18.320312 -5.804688 18.59375 -6.484375 18.59375 -7.265625 C 18.59375 -8.609375 18.019531 -9.65625 16.875 -10.40625 C 15.726562 -11.15625 14.125 -11.734375 12.0625 -12.140625 C 9.425781 -12.671875 7.328125 -13.601562 5.765625 -14.9375 C 4.203125 -16.269531 3.421875 -18.203125 3.421875 -20.734375 C 3.421875 -22.335938 3.867188 -23.734375 4.765625 -24.921875 C 5.671875 -26.109375 6.863281 -27.023438 8.34375 -27.671875 C 9.820312 -28.316406 11.421875 -28.640625 13.140625 -28.640625 C 15.378906 -28.640625 17.300781 -28.207031 18.90625 -27.34375 C 20.519531 -26.476562 21.785156 -25.253906 22.703125 -23.671875 L 19.640625 -20.640625 C 18.910156 -21.859375 17.992188 -22.84375 16.890625 -23.59375 C 15.796875 -24.34375 14.507812 -24.71875 13.03125 -24.71875 C 11.550781 -24.71875 10.304688 -24.375 9.296875 -23.6875 C 8.285156 -23.007812 7.78125 -22.0625 7.78125 -20.84375 C 7.78125 -19.476562 8.3125 -18.476562 9.375 -17.84375 C 10.4375 -17.207031 11.84375 -16.703125 13.59375 -16.328125 C 15.175781 -16.003906 16.679688 -15.503906 18.109375 -14.828125 C 19.535156 -14.160156 20.695312 -13.296875 21.59375 -12.234375 C 22.5 -11.171875 22.953125 -9.890625 22.953125 -8.390625 C 22.953125 -5.703125 22.035156 -3.5625 20.203125 -1.96875 C 18.378906 -0.382812 15.863281 0.40625 12.65625 0.40625 C 10.476562 0.40625 8.492188 -0.0195312 6.703125 -0.875 C 4.921875 -1.738281 3.359375 -3.140625 2.015625 -5.078125 Z M 5 -8.515625 "/></g></g></g></svg>